# Blender 4.0.2
# www.blender.org
o architrave_heritage
v -0.458034 2.058034 0.020986
v -0.448260 2.048260 0.020986
v -0.447621 2.047621 0.016999
v -0.445423 2.045423 0.013568
v -0.442799 2.042799 0.016527
v -0.439374 2.039375 0.017655
v -0.435397 2.035397 0.016809
v -0.430367 2.030367 0.013505
v -0.427684 2.027683 0.012780
v -0.425103 2.025103 0.013623
v -0.423693 2.023693 0.015687
v -0.416880 2.016881 0.013972
v -0.416880 2.016881 0.012079
v -0.393665 1.993665 0.008898
v -0.391379 1.991379 0.009092
v -0.389461 1.989461 0.010716
v -0.387120 1.987120 0.011644
v -0.382207 1.982207 0.009825
v -0.381000 1.981000 0.006973
v -0.381387 1.981387 0.003784
v -0.383181 1.983181 0.001402
v -0.386136 1.986136 -0.000000
v -0.458034 2.058034 -0.000000
v -0.458034 -0.000000 0.020986
v -0.448260 -0.000000 0.020986
v -0.447621 -0.000000 0.016999
v -0.445423 -0.000000 0.013568
v -0.442799 -0.000000 0.016527
v -0.439374 -0.000000 0.017655
v -0.435397 -0.000000 0.016809
v -0.430367 -0.000000 0.013505
v -0.427683 -0.000000 0.012780
v -0.425103 -0.000000 0.013623
v -0.423693 -0.000000 0.015687
v -0.416880 -0.000000 0.013972
v -0.416880 -0.000000 0.012080
v -0.396442 -0.000000 0.012080
v -0.395519 -0.000000 0.010051
v -0.393665 -0.000000 0.008898
v -0.391379 -0.000000 0.009092
v -0.389461 -0.000000 0.010716
v -0.387120 -0.000000 0.011644
v -0.384463 -0.000000 0.011448
v -0.382207 -0.000000 0.009825
v -0.381000 -0.000000 0.006973
v -0.381387 -0.000000 0.003784
v -0.383181 -0.000000 0.001402
v -0.386136 -0.000000 -0.000000
v -0.458034 -0.000000 -0.000000
v -0.396442 1.996442 0.012080
v -0.395519 1.995518 0.010051
v -0.384463 1.984463 0.011448
v 0.458033 2.058034 0.020986
v 0.448259 2.048260 0.020986
v 0.447620 2.047621 0.016999
v 0.445422 2.045423 0.013568
v 0.442798 2.042799 0.016527
v 0.439374 2.039375 0.017655
v 0.435396 2.035397 0.016809
v 0.430366 2.030367 0.013505
v 0.427683 2.027683 0.012780
v 0.425102 2.025103 0.013623
v 0.423692 2.023693 0.015687
v 0.416880 2.016881 0.013972
v 0.416880 2.016881 0.012080
v 0.393664 1.993665 0.008898
v 0.391378 1.991379 0.009092
v 0.389460 1.989461 0.010716
v 0.387119 1.987120 0.011644
v 0.382206 1.982207 0.009825
v 0.380999 1.981001 0.006973
v 0.381386 1.981387 0.003784
v 0.383180 1.983181 0.001402
v 0.386135 1.986136 -0.000000
v 0.458033 2.058034 0.000000
v 0.458034 0.000000 0.020986
v 0.448260 0.000000 0.020986
v 0.447621 0.000000 0.016999
v 0.445423 0.000000 0.013568
v 0.442799 0.000000 0.016527
v 0.439374 0.000000 0.017655
v 0.435397 0.000000 0.016809
v 0.430367 0.000000 0.013505
v 0.427684 0.000000 0.012780
v 0.425103 0.000000 0.013623
v 0.423693 0.000000 0.015687
v 0.416880 0.000000 0.013972
v 0.416880 0.000000 0.012080
v 0.396442 0.000000 0.012080
v 0.395519 0.000000 0.010051
v 0.393665 0.000000 0.008898
v 0.391379 0.000000 0.009092
v 0.389461 0.000000 0.010716
v 0.387120 0.000000 0.011645
v 0.384463 0.000000 0.011448
v 0.382207 0.000000 0.009825
v 0.381000 0.000000 0.006973
v 0.381387 0.000000 0.003784
v 0.383181 0.000000 0.001402
v 0.386136 0.000000 0.000000
v 0.458034 0.000000 0.000000
v 0.396441 1.996442 0.012080
v 0.395518 1.995519 0.010051
v 0.384462 1.984463 0.011448
vn 0.4286 -0.0000 -0.9035
vn 0.5566 -0.0000 -0.8308
vn 0.6321 -0.0000 -0.7749
vn 0.9505 -0.0000 0.3107
vn 0.9874 -0.0000 0.1582
vn 0.9344 -0.0000 0.3563
vn -0.5772 -0.0000 0.8166
vn -0.2520 -0.0000 0.9677
vn -0.3836 -0.0000 0.9235
vn -0.5142 -0.0000 0.8577
vn -0.8258 -0.0000 0.5639
vn -0.4937 -0.0000 0.8696
vn -0.6001 -0.0000 0.7999
vn -1.0000 -0.0000 -0.0000
vn 0.8421 -0.0000 0.5394
vn -0.2616 -0.0000 0.9652
vn -0.1513 -0.0000 0.9885
vn 0.2442 -0.0000 0.9697
vn -0.6469 -0.0000 0.7626
vn -0.7482 -0.0000 0.6635
vn -0.5495 -0.0000 0.8355
vn 0.2201 -0.0000 0.9755
vn 0.3417 -0.0000 0.9398
vn 1.0000 -0.0000 -0.0000
vn -0.1850 -0.0000 0.9827
vn -0.0543 -0.0000 0.9985
vn 0.7254 -0.0000 0.6883
vn 0.7815 -0.0000 0.6239
vn -0.0000 -0.0000 1.0000
vn 0.3049 -0.0000 0.9524
vn 0.3852 -0.0000 0.9228
vn 0.9875 -0.0000 0.1576
vn 0.9902 -0.0000 0.1393
vn 0.8230 -0.0000 0.5680
vn 0.9101 -0.0000 0.4143
vn 0.7514 -0.0000 0.6599
vn 0.4782 -0.0000 0.8782
vn 0.4100 -0.0000 0.9121
vn 0.9078 -0.0000 -0.4194
vn 0.9275 -0.0000 -0.3737
vn 0.3856 -0.0000 0.9226
vn 0.2337 -0.0000 0.9723
vn 0.1174 -0.0000 0.9931
vn -0.0259 -0.0000 0.9997
vn -0.0000 1.0000 -0.0000
vn -0.0000 -0.8421 0.5394
vn -0.0000 -0.9505 0.3107
vn -0.0000 0.2617 0.9652
vn -0.0000 0.5772 0.8166
vn -0.0000 -0.2442 0.9697
vn -0.0000 0.6469 0.7626
vn -0.0000 0.7482 0.6635
vn -0.0000 -0.2201 0.9755
vn -0.0000 -1.0000 0.0001
vn -0.0000 0.1851 0.9827
vn -0.0000 -0.7254 0.6883
vn -0.0000 -0.3049 0.9524
vn -0.0000 -0.9875 0.1575
vn -0.0000 -0.8230 0.5681
vn -0.0000 -0.9101 0.4144
vn -0.0000 -0.4782 0.8782
vn -0.0000 -0.9078 -0.4194
vn -0.0000 -0.3857 0.9226
vn -0.0000 -0.1174 0.9931
vn -0.0000 -0.5566 -0.8308
vn -0.0000 0.2520 0.9677
vn -0.0000 0.4937 0.8696
vn -0.0000 -0.4286 -0.9035
vn -0.0000 -0.9874 0.1583
vn -0.0000 0.8258 0.5640
vn -0.4286 -0.0000 -0.9035
vn -0.6321 -0.0000 -0.7749
vn -0.5566 -0.0000 -0.8308
vn -0.9505 -0.0000 0.3107
vn -0.9344 -0.0000 0.3563
vn -0.9874 -0.0000 0.1582
vn 0.5772 -0.0000 0.8166
vn 0.5142 -0.0000 0.8577
vn 0.3836 -0.0000 0.9235
vn 0.2520 -0.0000 0.9677
vn 0.8258 -0.0000 0.5639
vn 0.6001 -0.0000 0.7999
vn 0.4937 -0.0000 0.8696
vn -0.8421 -0.0000 0.5394
vn 0.2616 -0.0000 0.9652
vn 0.1513 -0.0000 0.9885
vn -0.2442 -0.0000 0.9697
vn 0.6469 -0.0000 0.7626
vn 0.5495 -0.0000 0.8355
vn 0.7482 -0.0000 0.6635
vn -0.2201 -0.0000 0.9755
vn -0.3417 -0.0000 0.9398
vn 0.1850 -0.0000 0.9827
vn 0.0543 -0.0000 0.9985
vn -0.7254 -0.0000 0.6883
vn -0.7815 -0.0000 0.6239
vn -0.3049 -0.0000 0.9524
vn -0.3852 -0.0000 0.9228
vn -0.9875 -0.0000 0.1576
vn -0.9902 -0.0000 0.1393
vn -0.8230 -0.0000 0.5680
vn -0.7514 -0.0000 0.6599
vn -0.9101 -0.0000 0.4143
vn -0.4782 -0.0000 0.8782
vn -0.4100 -0.0000 0.9121
vn -0.9078 -0.0000 -0.4194
vn -0.9275 -0.0000 -0.3737
vn -0.3856 -0.0000 0.9227
vn -0.2337 -0.0000 0.9723
vn -0.1174 -0.0000 0.9931
vn 0.0259 -0.0000 0.9997
vt 0.040670 0.136645
vt 0.042091 0.135073
vt 0.995496 0.135280
vt 0.995495 0.136752
vt 0.011113 0.093946
vt 0.010806 0.092005
vt 0.995497 0.091985
vt 0.995497 0.093938
vt 0.039073 0.126778
vt 0.038151 0.125570
vt 0.995496 0.125551
vt 0.995496 0.126741
vt 0.022616 0.108232
vt 0.021938 0.107030
vt 0.995497 0.107025
vt 0.995497 0.108282
vt 0.006107 0.087306
vt 0.006107 0.077218
vt 0.995497 0.077217
vt 0.995497 0.087311
vt 0.012170 0.095905
vt 0.995497 0.095946
vt 0.040199 0.127989
vt 0.995496 0.128019
vt 0.025891 0.111609
vt 0.995496 0.111647
vt 0.013431 0.097806
vt 0.995497 0.097864
vt 0.041476 0.129269
vt 0.995496 0.129336
vt 0.025891 0.112519
vt 0.995496 0.112532
vt 0.015077 0.099540
vt 0.995497 0.099590
vt 0.042561 0.130606
vt 0.995496 0.130693
vt 0.035717 0.122345
vt 0.995496 0.122363
vt 0.016989 0.101495
vt 0.995497 0.101560
vt 0.043140 0.132095
vt 0.995496 0.132235
vt 0.036160 0.123417
vt 0.995496 0.123462
vt 0.019408 0.104389
vt 0.995497 0.104420
vt 0.042954 0.133639
vt 0.995496 0.133846
vt 0.037052 0.124467
vt 0.995496 0.124454
vt 0.020698 0.105725
vt 0.995497 0.105723
vt 0.445421 0.154873
vt 0.004881 0.154872
vt 0.004881 0.144779
vt 0.445421 0.144780
vt 0.439350 0.163489
vt 0.010945 0.163473
vt 0.009889 0.161513
vt 0.440408 0.161528
vt 0.411280 0.195609
vt 0.038979 0.195566
vt 0.037854 0.194355
vt 0.412411 0.194393
vt 0.425598 0.179227
vt 0.024670 0.179182
vt 0.021394 0.175803
vt 0.428874 0.175849
vt 0.438082 0.165401
vt 0.012207 0.165375
vt 0.410009 0.196884
vt 0.040257 0.196848
vt 0.425598 0.180135
vt 0.024670 0.180092
vt 0.436430 0.167140
vt 0.013854 0.167109
vt 0.408925 0.198219
vt 0.041341 0.198184
vt 0.415769 0.189962
vt 0.034497 0.189921
vt 0.434513 0.169099
vt 0.015767 0.169065
vt 0.408345 0.199707
vt 0.041922 0.199673
vt 0.415326 0.191030
vt 0.034941 0.190993
vt 0.432092 0.171995
vt 0.018185 0.171959
vt 0.408531 0.201252
vt 0.041735 0.201218
vt 0.414436 0.192078
vt 0.035832 0.192043
vt 0.430809 0.173324
vt 0.019475 0.173296
vt 0.409394 0.202689
vt 0.040873 0.202652
vt 0.413334 0.193184
vt 0.036931 0.193146
vt 0.429554 0.174645
vt 0.020716 0.174601
vt 0.410817 0.204264
vt 0.039452 0.204224
vt 0.009581 0.159572
vt 0.440717 0.159577
vt 0.039526 0.006026
vt 0.994127 0.005877
vt 0.994128 0.007449
vt 0.040889 0.007535
vt 0.009882 0.048763
vt 0.994128 0.048743
vt 0.994129 0.050695
vt 0.009583 0.050655
vt 0.037790 0.015911
vt 0.994128 0.015920
vt 0.994128 0.017111
vt 0.036814 0.017190
vt 0.021412 0.034398
vt 0.994128 0.034401
vt 0.994128 0.035657
vt 0.020703 0.035654
vt 0.004885 0.055353
vt 0.994128 0.055368
vt 0.994128 0.065456
vt 0.004885 0.065445
vt 0.010965 0.046755
vt 0.994128 0.046735
vt 0.038895 0.014722
vt 0.994128 0.014643
vt 0.024674 0.031034
vt 0.994129 0.031037
vt 0.012258 0.044807
vt 0.994128 0.044817
vt 0.040249 0.013364
vt 0.994128 0.013326
vt 0.024674 0.030148
vt 0.994128 0.030127
vt 0.013865 0.043115
vt 0.994128 0.043091
vt 0.041317 0.012048
vt 0.994128 0.011969
vt 0.034503 0.020319
vt 0.994128 0.020298
vt 0.015819 0.041117
vt 0.994128 0.041122
vt 0.041918 0.010506
vt 0.994128 0.010427
vt 0.034978 0.019171
vt 0.994128 0.019200
vt 0.018209 0.038258
vt 0.994128 0.038262
vt 0.041728 0.008930
vt 0.994128 0.008883
vt 0.035773 0.018236
vt 0.994128 0.018207
vt 0.019508 0.036912
vt 0.994128 0.036959
s 1
f 22/1/1 21/2/2 47/3/3 48/4/1
f 3/5/4 2/6/5 25/7/5 26/8/6
f 16/9/7 15/10/8 40/11/9 41/12/10
f 11/13/11 10/14/12 33/15/13 34/16/11
f 1/17/14 23/18/14 49/19/14 24/20/14
f 4/21/15 3/5/4 26/8/6 27/22/15
f 17/23/16 16/9/7 41/12/10 42/24/17
f 12/25/18 11/13/18 34/16/18 35/26/18
f 5/27/19 4/21/20 27/22/20 28/28/21
f 52/29/22 17/23/16 42/24/17 43/30/23
f 13/31/24 12/25/24 35/26/24 36/32/24
f 6/33/25 5/27/19 28/28/21 29/34/26
f 18/35/27 52/29/22 43/30/23 44/36/28
f 50/37/29 13/31/29 36/32/29 37/38/29
f 7/39/30 6/33/25 29/34/26 30/40/31
f 19/41/32 18/35/27 44/36/28 45/42/33
f 51/43/34 50/37/35 37/38/35 38/44/36
f 8/45/37 7/39/30 30/40/31 31/46/38
f 20/47/39 19/41/32 45/42/33 46/48/40
f 14/49/41 51/43/34 38/44/36 39/50/42
f 9/51/43 8/45/37 31/46/38 32/52/44
f 21/2/2 20/47/39 46/48/40 47/3/3
f 2/6/29 1/17/29 24/20/29 25/7/29
f 15/10/8 14/49/41 39/50/42 40/11/9
f 10/14/12 9/51/43 32/52/44 33/15/13
f 1/53/45 53/54/45 75/55/45 23/56/45
f 4/57/46 56/58/46 55/59/47 3/60/47
f 17/61/48 69/62/48 68/63/49 16/64/49
f 12/65/50 64/66/50 63/67/50 11/68/50
f 5/69/51 57/70/51 56/58/52 4/57/52
f 52/71/53 104/72/53 69/62/48 17/61/48
f 13/73/54 65/74/54 64/66/54 12/65/54
f 6/75/55 58/76/55 57/70/51 5/69/51
f 18/77/56 70/78/56 104/72/53 52/71/53
f 50/79/29 102/80/29 65/74/29 13/73/29
f 7/81/57 59/82/57 58/76/55 6/75/55
f 19/83/58 71/84/58 70/78/56 18/77/56
f 51/85/59 103/86/59 102/80/60 50/79/60
f 8/87/61 60/88/61 59/82/57 7/81/57
f 20/89/62 72/90/62 71/84/58 19/83/58
f 14/91/63 66/92/63 103/86/59 51/85/59
f 9/93/64 61/94/64 60/88/61 8/87/61
f 21/95/65 73/96/65 72/90/62 20/89/62
f 15/97/66 67/98/66 66/92/63 14/91/63
f 10/99/67 62/100/67 61/94/64 9/93/64
f 22/101/68 74/102/68 73/96/65 21/95/65
f 3/60/47 55/59/47 54/103/69 2/104/69
f 16/64/49 68/63/49 67/98/66 15/97/66
f 11/68/70 63/67/70 62/100/67 10/99/67
f 74/105/71 100/106/71 99/107/72 73/108/73
f 55/109/74 78/110/75 77/111/76 54/112/76
f 68/113/77 93/114/78 92/115/79 67/116/80
f 63/117/81 86/118/81 85/119/82 62/120/83
f 53/121/24 76/122/24 101/123/24 75/124/24
f 56/125/84 79/126/84 78/110/75 55/109/74
f 69/127/85 94/128/86 93/114/78 68/113/77
f 64/129/87 87/130/87 86/118/87 63/117/87
f 57/131/88 80/132/89 79/126/90 56/125/90
f 104/133/91 95/134/92 94/128/86 69/127/85
f 65/135/14 88/136/14 87/130/14 64/129/14
f 58/137/93 81/138/94 80/132/89 57/131/88
f 70/139/95 96/140/96 95/134/92 104/133/91
f 102/141/29 89/142/29 88/136/29 65/135/29
f 59/143/97 82/144/98 81/138/94 58/137/93
f 71/145/99 97/146/100 96/140/96 70/139/95
f 103/147/101 90/148/102 89/142/103 102/141/103
f 60/149/104 83/150/105 82/144/98 59/143/97
f 72/151/106 98/152/107 97/146/100 71/145/99
f 66/153/108 91/154/109 90/148/102 103/147/101
f 61/155/110 84/156/111 83/150/105 60/149/104
f 73/108/73 99/107/72 98/152/107 72/151/106
f 54/112/29 77/111/29 76/122/29 53/121/29
f 67/116/80 92/115/79 91/154/109 66/153/108
f 62/120/83 85/119/82 84/156/111 61/155/110
f 2/104/29 54/103/29 53/54/29 1/53/29
