# Blender 4.0.2
# www.blender.org
o door_01
v 0.069350 1.864313 0.022000
v -0.069350 1.864313 0.022000
v -0.069350 1.864313 -0.022000
v 0.069350 1.864313 -0.022000
v 0.069350 0.873130 0.022000
v -0.069350 0.873130 0.022000
v -0.069350 0.873130 -0.022000
v 0.069350 0.873130 -0.022000
v 0.280300 1.864313 0.007835
v -0.280300 1.864313 0.007835
v -0.280300 0.172371 0.007835
v 0.280300 0.172371 0.007835
v -0.280300 1.864313 -0.007835
v 0.280300 1.864313 -0.007835
v 0.280300 0.172371 -0.007835
v -0.280300 0.172371 -0.007835
v -0.280300 0.873130 -0.007835
v 0.280300 0.873130 -0.007835
v 0.280300 0.873130 0.007835
v -0.280300 0.873130 0.007835
v -0.280300 0.756443 -0.007835
v 0.280300 0.756443 -0.007835
v 0.280300 0.756443 0.007835
v -0.280300 0.756443 0.007835
v 0.069350 1.864313 0.007835
v -0.069350 1.864313 0.007835
v 0.069350 0.172371 0.007835
v -0.069350 0.172371 0.007835
v -0.069350 1.864313 -0.007835
v 0.069350 1.864313 -0.007835
v -0.069350 0.172371 -0.007835
v 0.069350 0.172371 -0.007835
v 0.069350 0.873130 0.007835
v -0.069350 0.873130 0.007835
v -0.069350 0.873130 -0.007835
v 0.069350 0.873130 -0.007835
v -0.069350 0.756443 0.007835
v 0.069350 0.756443 0.007835
v 0.069350 0.756443 -0.007835
v -0.069350 0.756443 -0.007835
v -0.280300 1.981000 -0.022000
v 0.280300 1.981000 -0.022000
v 0.280300 1.981000 0.022000
v -0.280300 1.981000 0.022000
v 0.280300 1.864313 0.022000
v -0.280300 1.864313 0.022000
v -0.280300 1.864313 -0.022000
v 0.280300 1.864313 -0.022000
v 0.280300 0.000000 -0.022000
v -0.280300 0.000000 -0.022000
v -0.280300 0.000000 0.022000
v 0.280300 0.000000 0.022000
v -0.280300 0.172371 0.022000
v 0.280300 0.172371 0.022000
v 0.280300 0.172371 -0.022000
v -0.280300 0.172371 -0.022000
v -0.280300 0.873130 -0.022000
v 0.280300 0.873130 -0.022000
v 0.280300 0.873130 0.022000
v -0.280300 0.873130 0.022000
v -0.280300 0.756443 -0.022000
v 0.280300 0.756443 -0.022000
v 0.280300 0.756443 0.022000
v -0.280300 0.756443 0.022000
v 0.069350 0.172371 0.022000
v -0.069350 0.172371 0.022000
v -0.069350 0.172371 -0.022000
v 0.069350 0.172371 -0.022000
v -0.069350 0.756443 0.022000
v 0.069350 0.756443 0.022000
v 0.069350 0.756443 -0.022000
v -0.069350 0.756443 -0.022000
v 0.419000 0.000000 0.022000
v 0.419000 1.981000 0.022000
v 0.419000 0.000000 -0.022000
v 0.419000 1.981000 -0.022000
v 0.280300 0.000000 -0.022000
v 0.280300 1.981000 -0.022000
v 0.280300 0.000000 0.022000
v 0.280300 1.981000 0.022000
v -0.419000 0.000000 0.022000
v -0.419000 1.981000 0.022000
v -0.419000 0.000000 -0.022000
v -0.419000 1.981000 -0.022000
v -0.280300 0.000000 -0.022000
v -0.280300 1.981000 -0.022000
v -0.280300 0.000000 0.022000
v -0.280300 1.981000 0.022000
vn -0.0000 -0.0000 -1.0000
vn -0.0000 -0.0000 1.0000
vn 1.0000 -0.0000 -0.0000
vn -1.0000 -0.0000 -0.0000
vn -0.0000 -1.0000 -0.0000
vn -0.0000 1.0000 -0.0000
vt 0.898545 0.500518
vt 0.898544 0.951403
vt 0.835451 0.951403
vt 0.835451 0.500518
vt 0.981654 0.500518
vt 0.981654 0.951403
vt 0.918560 0.951403
vt 0.918560 0.500518
vt 0.815435 0.951403
vt 0.815435 0.500518
vt 0.357666 0.731085
vt 0.357666 0.635127
vt 0.808538 0.635127
vt 0.808538 0.731085
vt 0.808563 0.528093
vt 0.808563 0.624056
vt 0.357666 0.624056
vt 0.357666 0.528093
vt 0.357820 0.943622
vt 0.357820 0.847658
vt 0.808722 0.847658
vt 0.808722 0.943622
vt 0.889180 0.010078
vt 0.889180 0.106041
vt 0.623481 0.106041
vt 0.623481 0.010078
vt 0.889702 0.115241
vt 0.889702 0.211204
vt 0.624003 0.211204
vt 0.624003 0.115241
vt 0.623612 0.491645
vt 0.623612 0.395679
vt 0.889316 0.395680
vt 0.889316 0.491645
vt 0.994846 0.275122
vt 0.898889 0.275122
vt 0.898888 0.009438
vt 0.994846 0.009438
vt 0.357659 0.838109
vt 0.357659 0.742144
vt 0.808561 0.742145
vt 0.808561 0.838109
vt 0.615786 0.008557
vt 0.615786 0.028573
vt 0.360763 0.028574
vt 0.360763 0.008557
vt 0.360763 0.101672
vt 0.360763 0.081656
vt 0.615786 0.081656
vt 0.615786 0.101672
vt 0.615786 0.154754
vt 0.360763 0.154754
vt 0.360150 0.241272
vt 0.360150 0.162863
vt 0.615160 0.162863
vt 0.615160 0.241272
vt 0.360150 0.261287
vt 0.615160 0.261287
vt 0.615160 0.339696
vt 0.360150 0.339696
vt 0.360150 0.359712
vt 0.615160 0.359712
vt 0.359878 0.444215
vt 0.614886 0.444215
vt 0.614886 0.464230
vt 0.359878 0.464230
vt 0.614886 0.391136
vt 0.359878 0.391136
vt 0.359878 0.517309
vt 0.614886 0.517309
vt 0.359878 0.371121
vt 0.614886 0.371121
vt 0.624134 0.220458
vt 0.889826 0.220458
vt 0.889826 0.283552
vt 0.624134 0.283552
vt 0.624134 0.303567
vt 0.889826 0.303567
vt 0.889826 0.366661
vt 0.624134 0.366661
vt 0.624134 0.386677
vt 0.889826 0.386677
vt 0.932409 0.347554
vt 0.932409 0.284467
vt 0.952422 0.284467
vt 0.952422 0.347554
vt 0.152959 0.006273
vt 0.172974 0.006273
vt 0.172971 0.907433
vt 0.152958 0.907433
vt 0.069848 0.006273
vt 0.089864 0.006273
vt 0.089863 0.907433
vt 0.069849 0.907433
vt 0.965181 0.408887
vt 0.902094 0.408887
vt 0.902094 0.388873
vt 0.965181 0.388873
vt 0.006755 0.907433
vt 0.006754 0.006273
vt 0.202845 0.006273
vt 0.202847 0.907433
vt 0.182832 0.907433
vt 0.182831 0.006273
vt 0.922554 0.284468
vt 0.922554 0.347571
vt 0.902535 0.347571
vt 0.902535 0.284468
vt 0.285956 0.907433
vt 0.285955 0.006273
vt 0.349050 0.006273
vt 0.349050 0.907433
vt 0.265940 0.006273
vt 0.265942 0.907433
vt 0.902546 0.359183
vt 0.965632 0.359183
vt 0.965632 0.379196
vt 0.902546 0.379196
s 0
f 4/1/1 8/2/1 7/3/1 3/4/1
f 2/5/2 6/6/2 5/7/2 1/8/2
f 4/1/3 1/8/3 5/7/3 8/2/3
f 7/3/4 6/9/4 2/10/4 3/4/4
f 30/11/1 14/12/1 18/13/1 36/14/1
f 9/15/2 25/16/2 33/17/2 19/18/2
f 13/19/1 29/20/1 35/21/1 17/22/1
f 21/23/1 40/24/1 31/25/1 16/26/1
f 23/27/2 38/28/2 27/29/2 12/30/2
f 37/31/2 24/32/2 11/33/2 28/34/2
f 39/35/1 22/36/1 15/37/1 32/38/1
f 26/39/2 10/40/2 20/41/2 34/42/2
f 46/43/5 47/44/5 48/45/5 45/46/5
f 43/47/6 42/48/6 41/49/6 44/50/6
f 46/51/2 45/52/2 43/47/2 44/50/2
f 48/45/1 47/44/1 41/49/1 42/48/1
f 52/53/2 54/54/2 53/55/2 51/56/2
f 49/57/1 50/58/1 56/59/1 55/60/1
f 52/53/5 51/56/5 50/58/5 49/57/5
f 54/61/6 55/60/6 56/59/6 53/62/6
f 58/63/6 57/64/6 60/65/6 59/66/6
f 61/67/1 57/64/1 58/63/1 62/68/1
f 63/69/2 59/66/2 60/65/2 64/70/2
f 63/71/5 64/72/5 61/67/5 62/68/5
f 69/73/2 66/74/2 65/75/2 70/76/2
f 71/77/1 68/78/1 67/79/1 72/80/1
f 65/75/3 68/78/3 71/77/3 70/76/3
f 69/81/4 72/80/4 67/79/4 66/82/4
f 77/83/5 75/84/5 73/85/5 79/86/5
f 77/87/4 79/88/4 80/89/4 78/90/4
f 73/91/3 75/92/3 76/93/3 74/94/3
f 76/95/6 78/96/6 80/97/6 74/98/6
f 80/99/2 79/100/2 73/91/2 74/94/2
f 75/92/1 77/87/1 78/90/1 76/93/1
f 85/101/3 86/102/3 88/103/3 87/104/3
f 86/105/6 84/106/6 82/107/6 88/108/6
f 82/109/2 81/110/2 87/111/2 88/112/2
f 83/113/4 81/110/4 82/109/4 84/114/4
f 83/115/5 85/116/5 87/117/5 81/118/5
f 86/102/1 85/101/1 83/113/1 84/114/1
